<svg xmlns="http://www.w3.org/2000/svg" width="83" height="83" viewBox="0 0 83 83">
    <defs>
        <radialGradient id="radial-gradient" cx="-.528" cy="1.357" r="4.312" gradientTransform="matrix(-0.635, -0.878, 1.165, -0.478, -2.975, -53.341)" gradientUnits="objectBoundingBox">
            <stop offset=".474" stop-color="#eaa628"/>
            <stop offset=".928" stop-color="#eaa628"/>
        </radialGradient>
        <filter id="Path_6806" width="83" height="83" x="0" y="0" filterUnits="userSpaceOnUse">
            <feOffset dy="3"/>
            <feGaussianBlur result="blur" stdDeviation="3"/>
            <feFlood flood-opacity=".078"/>
            <feComposite in2="blur" operator="in"/>
            <feComposite in="SourceGraphic"/>
        </filter>
        <style>
            .cls-2{fill:#2a222f;stroke:#fff;stroke-linecap:square;stroke-linejoin:bevel}.cls-4{fill:#fff;stroke:#011e29;stroke-linecap:round;stroke-linejoin:round}.cls-6{fill:#0074ba}
        </style>
    </defs>
    <g id="Group_7587" transform="translate(-345 -1776.719)">
        <g id="Group_7566" transform="translate(0 949.219)">
            <g filter="url(#Path_6806)" transform="matrix(1, 0, 0, 1, 345, 827.5)">
                <g id="Path_6806-2" fill="#33b2ff" stroke="none">
                    <path d="M32.5 64.5c-4.32 0-8.51-.846-12.456-2.515-3.81-1.611-7.232-3.919-10.171-6.858-2.94-2.939-5.247-6.36-6.858-10.171C1.346 41.01.5 36.82.5 32.5s.846-8.51 2.515-12.456c1.611-3.81 3.919-7.232 6.858-10.171 2.939-2.94 6.36-5.247 10.171-6.858C23.99 1.346 28.18.5 32.5.5s8.51.846 12.456 2.515c3.81 1.611 7.232 3.919 10.171 6.858 2.94 2.939 5.247 6.36 6.858 10.171C63.654 23.99 64.5 28.18 64.5 32.5s-.846 8.51-2.515 12.456c-1.611 3.81-3.919 7.232-6.858 10.171-2.939 2.94-6.36 5.247-10.171 6.858C41.01 63.654 36.82 64.5 32.5 64.5z" transform="translate(9 6)"/>
                    <path fill="#fff" d="M32.5 1c-4.253 0-8.378.833-12.26 2.475-3.752 1.587-7.12 3.858-10.014 6.751-2.893 2.893-5.164 6.262-6.751 10.013C1.833 24.122 1 28.247 1 32.5s.833 8.378 2.475 12.26c1.587 3.752 3.858 7.12 6.751 10.014 2.893 2.893 6.262 5.164 10.013 6.751C24.122 63.167 28.247 64 32.5 64s8.378-.833 12.26-2.475c3.752-1.587 7.12-3.858 10.014-6.751 2.893-2.893 5.164-6.262 6.751-10.013C63.167 40.878 64 36.753 64 32.5s-.833-8.378-2.475-12.26c-1.587-3.752-3.858-7.12-6.751-10.014-2.893-2.893-6.262-5.164-10.013-6.751C40.878 1.833 36.753 1 32.5 1m0-1C50.45 0 65 14.55 65 32.5S50.45 65 32.5 65 0 50.45 0 32.5 14.55 0 32.5 0z" transform="translate(9 6)"/>
                </g>
            </g>
            <g id="Group_6909" transform="translate(376.961 888.42)">
                <path id="Line_1" d="M0 0L0 3.513" class="cls-2" transform="translate(1.756)"/>
                <path id="Line_2" d="M3.513 0L0 0" class="cls-2" transform="translate(0 1.756)"/>
            </g>
            <path id="Path_6807" fill="none" stroke="#fff" stroke-linecap="square" stroke-linejoin="bevel" d="M68.607 49.021s2.572.156 2.572 3.585h.086c0-3.429 2.572-3.585 2.572-3.585v-.088s-2.572-.156-2.572-3.585h-.086c0 3.429-2.572 3.585-2.572 3.585z" transform="translate(315.277 793.813)"/>
            <g id="Group_6910" transform="translate(409.303 862.487)">
                <path id="Line_35" d="M0 0L0 3.513" class="cls-2" transform="translate(1.756)"/>
                <path id="Line_36" d="M3.513 0L0 0" class="cls-2" transform="translate(0 1.756)"/>
            </g>
        </g>
        <g id="Group_7589" transform="translate(-12508.47 18119.518)">
            <path id="Path_279" d="M463.225 345.142l7.131 13.094c3.89-3.98 7.859-8.555 7.859-8.555.353-.378-.072-1.962-1-3.67-.939-1.724-2.051-2.945-2.553-2.829-.214.03-6.085.871-11.437 1.96z" class="cls-4" transform="translate(12437.6 -16661.486)"/>
            <path id="Path_280" fill="url(#radial-gradient)" d="M456.7 365.509c1.273-1.071 2.818-2.569 4.377-4.164l-7.131-13.094c-2.186.444-4.283.93-5.873 1.418z" transform="translate(12446.879 -16664.596)"/>
            <path id="Path_281" d="M448.072 349.669l8.627 15.84c1.273-1.071 2.818-2.569 4.377-4.164l-.009-.016c.474-.579-.586-3.667-2.467-7.121s-3.9-6.019-4.644-5.934l-.012-.023c-2.185.449-4.281.93-5.872 1.418z" class="cls-4" transform="translate(12446.879 -16664.596)"/>
            <path id="Path_282" d="M430.424 359.559c.005 1.038-.414 1.517-1.315 1.438a12.478 12.478 0 0 1-2.18-.446l2.374 4.47v.009l.223.418h.007c.658 1.181 2.467 4.419 2.467 4.419a12.473 12.473 0 0 1 .808-2.073c.422-.8 1.052-.892 1.921-.324 1.018.665 3.638 3.812 7.467 1.4a14.716 14.716 0 0 0 1.534-1.156h.012c.786-.428-.509-4.321-2.892-8.7s-4.94-7.56-5.731-7.149a14.815 14.815 0 0 0-1.827.666c-4.092 1.904-2.874 5.814-2.868 7.028z" class="cls-4" transform="translate(12459.827 -16666.783)"/>
            <path id="Path_285" d="M408.3 381.313a14.7 14.7 0 0 0-8.719 5.287c-2.806 3.426-4.193 7.141-5.56 10.822h5.768a33.4 33.4 0 0 1 1.674-8.544 13.371 13.371 0 0 1 6.837-7.565z" class="cls-6" transform="translate(12479.98 -16684.842)"/>
            <path id="Path_286" d="M422.642 397.343a33.248 33.248 0 0 1-2.261-7.384 8.562 8.562 0 0 1 2.778-8.174 8.94 8.94 0 0 0-5.729 6.3 23.477 23.477 0 0 0-.17 9.259z" class="cls-6" transform="translate(12465.979 -16685.131)"/>
        </g>
    </g>
</svg>
