<svg xmlns="http://www.w3.org/2000/svg" width="83" height="83" viewBox="0 0 83 83">
    <defs>
        <filter id="Path_6806" width="83" height="83" x="0" y="0" filterUnits="userSpaceOnUse">
            <feOffset dy="3"/>
            <feGaussianBlur result="blur" stdDeviation="3"/>
            <feFlood flood-opacity=".078"/>
            <feComposite in2="blur" operator="in"/>
            <feComposite in="SourceGraphic"/>
        </filter>
        <style>
            .cls-3,.cls-4{fill:#ef4128;stroke:#011e29;stroke-width:.5px;stroke-linecap:round;stroke-linejoin:round}.cls-4{fill:#fff}.cls-8{fill:#2a222f;stroke:#fff;stroke-linecap:square;stroke-linejoin:bevel}
        </style>
    </defs>
    <g id="Group_7200" transform="translate(-1612 -8083)">
        <g filter="url(#Path_6806)" transform="matrix(1, 0, 0, 1, 1612, 8083)">
            <g id="Path_6806-2" fill="#fcb72b" stroke="none">
                <path d="M32.5 64.5c-4.32 0-8.51-.846-12.456-2.515-3.81-1.611-7.232-3.919-10.171-6.858-2.94-2.939-5.247-6.36-6.858-10.171C1.346 41.01.5 36.82.5 32.5s.846-8.51 2.515-12.456c1.611-3.81 3.919-7.232 6.858-10.171 2.939-2.94 6.36-5.247 10.171-6.858C23.99 1.346 28.18.5 32.5.5s8.51.846 12.456 2.515c3.81 1.611 7.232 3.919 10.171 6.858 2.94 2.939 5.247 6.36 6.858 10.171C63.654 23.99 64.5 28.18 64.5 32.5s-.846 8.51-2.515 12.456c-1.611 3.81-3.919 7.232-6.858 10.171-2.939 2.94-6.36 5.247-10.171 6.858C41.01 63.654 36.82 64.5 32.5 64.5z" transform="translate(9 6)"/>
                <path fill="#fff" d="M32.5 1c-4.253 0-8.378.833-12.26 2.475-3.752 1.587-7.12 3.858-10.014 6.751-2.893 2.893-5.164 6.262-6.751 10.013C1.833 24.122 1 28.247 1 32.5s.833 8.378 2.475 12.26c1.587 3.752 3.858 7.12 6.751 10.014 2.893 2.893 6.262 5.164 10.013 6.751C24.122 63.167 28.247 64 32.5 64s8.378-.833 12.26-2.475c3.752-1.587 7.12-3.858 10.014-6.751 2.893-2.893 5.164-6.262 6.751-10.013C63.167 40.878 64 36.753 64 32.5s-.833-8.378-2.475-12.26c-1.587-3.752-3.858-7.12-6.751-10.014-2.893-2.893-6.262-5.164-10.013-6.751C40.878 1.833 36.753 1 32.5 1m0-1C50.45 0 65 14.55 65 32.5S50.45 65 32.5 65 0 50.45 0 32.5 14.55 0 32.5 0z" transform="translate(9 6)"/>
            </g>
        </g>
        <g id="Group_6911" transform="translate(1631.977 8096.541)">
            <g id="Group_6908" transform="translate(3.513 0)">
                <g id="Group_6856" transform="translate(0)">
                    <path id="Path_267" fill="#ef4128" d="M59.8 123.158c-.12-.08-2.671-1.4-2.671-1.4l1.752-1.155 7.96-1.088 2.545-.011.675.011 2.544-.011s1.055 1.338.935 1.239a20.787 20.787 0 0 0-2.707 1.135l3.743-.119s1.473 2.349 1.513 2.468a2.94 2.94 0 0 1 0 .6H45.064l1.119-1.549h3.38z" transform="translate(-43.402 -75.028)"/>
                    <g id="Group_103" transform="translate(0)">
                        <path id="Path_268" d="M96.778 81.451s-.256 7.033-.989 9.047l.146 4.138.66.769.1 2.026 2.544-.011-1.4-2.638-.256-4.321a77.089 77.089 0 0 1 2.527-7.288l.309-4.274z" class="cls-3" transform="translate(-70.992 -52.941)"/>
                        <path id="Path_269" d="M45.715 81.337s-1.2-.1-1.926 1.52-1.567 2.44-2.368 2.692a1.4 1.4 0 0 0 1.617-.186l.04-.032c.873-.726-.2.582-.2.582s1.1-.048 2.121-1.631a4.153 4.153 0 0 0 .716-2.945z" class="cls-4" transform="translate(-41.421 -54.266)"/>
                        <path id="Path_270" d="M68.7 25.492a4.1 4.1 0 0 1 .354 3.987 11.45 11.45 0 0 0-1.091 2.927l-.292 1.91a10.308 10.308 0 0 1-2.933 5.762 10.311 10.311 0 0 1-4.016 2.464l-6.132 2.03a13.717 13.717 0 0 0-5.456 3.328 4.782 4.782 0 0 0-1.344 1.974c-.186.837 0 4.829 2.157 6.111 0 0-.548 3.186-2.343 4.321a15.59 15.59 0 0 1-1.429 8.239l1.575 1.685h1.465l-.842-2.124s.878-4.468 1.172-5.31 6.372-7.983 6.372-7.983 6.152.073 10.656-2.49c0 0-.256 5.2-.989 7.214l.146 4.138.66.769.1 2.026 2.545-.011-1.4-2.638-.257-4.321a77.086 77.086 0 0 1 2.522-7.283c.287-.421 1.276-1.5 2.154-2.441a10.3 10.3 0 0 0 2.236-3.732l.914-2.7a10.3 10.3 0 0 0 .043-6.491 12.848 12.848 0 0 1-.843-3.647c.183-1.172.293-1.575.293-1.575l1.648-.915 1.319-.11a2.1 2.1 0 0 0 .549-2.453 21 21 0 0 1-5.53-3.3c-1.758-1.758-4.212-4.1-7.837-2.124s-2.088 6.885.915 6.885 3.7-4.248.879-4.248c0 0 1.719 1.3.384 2.454-1.319 1.135-3.763-1.533-1.007-3.076a1.8 1.8 0 0 1 2.683.748z" class="cls-4" transform="translate(-44.007 -21.985)"/>
                        <path id="Path_271" fill="#ef4128" stroke="#011e29" stroke-width="0.5px" d="M108.284 28.76l-1.365-3.349a.868.868 0 1 0-1.574.727c.317.61.666 1.271.708 1.3a20.512 20.512 0 0 0 2.231 1.322z" transform="translate(-76.136 -23.554)"/>
                        <path id="Path_272" fill="#afa64d" d="M101.335 33.547a9.306 9.306 0 0 1 1.784-.528 1.058 1.058 0 0 0-1.784.528z" transform="translate(-74.009 -27.814)"/>
                        <path id="Path_273" d="M68.222 83.2a9.15 9.15 0 0 1-.689 4.914s.379 0 1.016-.028a14.051 14.051 0 0 0-.327-4.886z" class="cls-3" transform="translate(-55.624 -55.278)"/>
                        <path id="Path_274" fill="#00b1cd" stroke="#011e29" stroke-linecap="round" stroke-linejoin="round" stroke-width="0.5px" d="M90.336 83.637s-.2 1.431-.47 2.477c.158-.082.316-.166.47-.254a18.47 18.47 0 0 0 0-2.223z" transform="translate(-67.771 -55.518)"/>
                        <path id="Path_275" d="M99.515 39.116s1.291 1.73 1.593 2.142a10.641 10.641 0 0 0 2.314 1.271c.183-1.172.293-1.575.293-1.575s-2.1-.218-2.477-.328a10.439 10.439 0 0 1-1.723-1.51z" class="cls-3" transform="translate(-73.019 -31.303)"/>
                        <path id="Path_276" d="M60.482 91s-1.374 1.615-2.847 3.4A4.784 4.784 0 0 1 56 96.494a15.59 15.59 0 0 1-1.429 8.239l1.575 1.685h1.465l-.842-2.124s.879-4.468 1.172-5.31S64.311 91 64.311 91a27.408 27.408 0 0 0 6.722-.916c.073-.925.105-1.574.105-1.574C66.634 91.075 60.482 91 60.482 91z" class="cls-3" transform="translate(-48.573 -58.169)"/>
                    </g>
                </g>
            </g>
            <g id="Group_6909" transform="translate(0 13.684)">
                <path id="Line_1" d="M0 0L0 3.513" class="cls-8" transform="translate(1.756)"/>
                <path id="Line_2" d="M3.513 0L0 0" class="cls-8" transform="translate(0 1.756)"/>
            </g>
            <path id="Path_6807" fill="none" stroke="#fff" stroke-linecap="square" stroke-linejoin="bevel" d="M68.607 49.021s2.572.156 2.572 3.585h.086c0-3.429 2.572-3.585 2.572-3.585v-.088s-2.572-.156-2.572-3.585h-.086c0 3.429-2.572 3.585-2.572 3.585z" transform="translate(-60.596 -41.353)"/>
            <g id="Group_6910" transform="translate(42.325 30.868)">
                <path id="Line_35" d="M0 0L0 3.513" class="cls-8" transform="translate(1.756)"/>
                <path id="Line_36" d="M3.513 0L0 0" class="cls-8" transform="translate(0 1.756)"/>
            </g>
        </g>
    </g>
</svg>
