<svg xmlns="http://www.w3.org/2000/svg" width="83" height="83" viewBox="0 0 83 83">
    <defs>
        <filter id="Path_6806" width="83" height="83" x="0" y="0" filterUnits="userSpaceOnUse">
            <feOffset dy="3"/>
            <feGaussianBlur result="blur" stdDeviation="3"/>
            <feFlood flood-opacity=".078"/>
            <feComposite in2="blur" operator="in"/>
            <feComposite in="SourceGraphic"/>
        </filter>
        <style>
            .cls-2{fill:#2a222f;stroke:#fff}.cls-2,.cls-6{stroke-linecap:square;stroke-linejoin:bevel}.cls-4,.cls-6{fill:#fff;stroke:#011e29}.cls-4{stroke-linecap:round;stroke-linejoin:round}.cls-5{fill:#011e29}
        </style>
    </defs>
    <g id="Group_7544" transform="translate(-345 -1064.5)">
        <g id="Group_7539" transform="translate(0 237)">
            <g filter="url(#Path_6806)" transform="matrix(1, 0, 0, 1, 345, 827.5)">
                <g id="Path_6806-2" fill="#adadad" stroke="none">
                    <path d="M32.5 64.5c-4.32 0-8.51-.846-12.456-2.515-3.81-1.611-7.232-3.919-10.171-6.858-2.94-2.939-5.247-6.36-6.858-10.171C1.346 41.01.5 36.82.5 32.5s.846-8.51 2.515-12.456c1.611-3.81 3.919-7.232 6.858-10.171 2.939-2.94 6.36-5.247 10.171-6.858C23.99 1.346 28.18.5 32.5.5s8.51.846 12.456 2.515c3.81 1.611 7.232 3.919 10.171 6.858 2.94 2.939 5.247 6.36 6.858 10.171C63.654 23.99 64.5 28.18 64.5 32.5s-.846 8.51-2.515 12.456c-1.611 3.81-3.919 7.232-6.858 10.171-2.939 2.94-6.36 5.247-10.171 6.858C41.01 63.654 36.82 64.5 32.5 64.5z" transform="translate(9 6)"/>
                    <path fill="#fff" d="M32.5 1c-4.253 0-8.378.833-12.26 2.475-3.752 1.587-7.12 3.858-10.014 6.751-2.893 2.893-5.164 6.262-6.751 10.013C1.833 24.122 1 28.247 1 32.5s.833 8.378 2.475 12.26c1.587 3.752 3.858 7.12 6.751 10.014 2.893 2.893 6.262 5.164 10.013 6.751C24.122 63.167 28.247 64 32.5 64s8.378-.833 12.26-2.475c3.752-1.587 7.12-3.858 10.014-6.751 2.893-2.893 5.164-6.262 6.751-10.013C63.167 40.878 64 36.753 64 32.5s-.833-8.378-2.475-12.26c-1.587-3.752-3.858-7.12-6.751-10.014-2.893-2.893-6.262-5.164-10.013-6.751C40.878 1.833 36.753 1 32.5 1m0-1C50.45 0 65 14.55 65 32.5S50.45 65 32.5 65 0 50.45 0 32.5 14.55 0 32.5 0z" transform="translate(9 6)"/>
                </g>
            </g>
            <g id="Group_6909" transform="translate(363.961 876.42)">
                <path id="Line_1" d="M0 0L0 3.513" class="cls-2" transform="translate(1.756)"/>
                <path id="Line_2" d="M3.513 0L0 0" class="cls-2" transform="translate(0 1.756)"/>
            </g>
            <path id="Path_6807" fill="none" stroke="#fff" stroke-linecap="square" stroke-linejoin="bevel" d="M68.607 49.021s2.572.156 2.572 3.585h.086c0-3.429 2.572-3.585 2.572-3.585v-.088s-2.572-.156-2.572-3.585h-.086c0 3.429-2.572 3.585-2.572 3.585z" transform="translate(315.277 793.813)"/>
            <g id="Group_6910" transform="translate(390.303 888.701)">
                <path id="Line_35" d="M0 0L0 3.513" class="cls-2" transform="translate(1.756)"/>
                <path id="Line_36" d="M3.513 0L0 0" class="cls-2" transform="translate(0 1.756)"/>
            </g>
        </g>
        <g id="Group_7543" transform="translate(-12179.354 17405.566)">
            <path id="Path_208" d="M392.065 67.856A29.931 29.931 0 0 0 402.5 55.907l-7.378 2.932a8.183 8.183 0 0 1 6.037-6.409 11.5 11.5 0 0 0-11.849 3.477c-5.068 5.764-3.056 10.31-3.056 10.31z" class="cls-4" transform="translate(12159.142 -16371.521)"/>
            <path id="Path_209" d="M392.8 88.251l-2.608 2.674a5.3 5.3 0 0 1-2.166-5.348l4.492 1.267z" class="cls-5" transform="translate(12157.964 -16390.713)"/>
            <path id="Path_210" d="M396.675 90.838l-.857.418-2.608 2.674s-.054 3.074 7.422 3.093a10.234 10.234 0 0 1 1.226-4.642z" class="cls-6" transform="translate(12154.941 -16393.719)"/>
            <path id="Path_211" d="M454.758 67.856a29.931 29.931 0 0 1-10.433-11.949l7.378 2.932a8.183 8.183 0 0 0-6.037-6.409 11.5 11.5 0 0 1 11.849 3.477c5.067 5.764 3.056 10.31 3.056 10.31z" class="cls-4" transform="translate(12125.739 -16371.521)"/>
            <path id="Path_212" d="M469.707 88.251l2.608 2.674a5.3 5.3 0 0 0 2.166-5.348l-4.492 1.267z" class="cls-5" transform="translate(12111.237 -16390.713)"/>
            <path id="Path_213" d="M464.266 93.93l-2.608-2.674-.857-.418-5.182 1.544a10.232 10.232 0 0 1 1.226 4.642c7.474-.024 7.421-3.094 7.421-3.094z" class="cls-6" transform="translate(12119.285 -16393.719)"/>
            <g id="Group_82" transform="translate(12551.228 -16296.025)">
                <path id="Path_214" d="M400.385 115.538l5.782-5.354a6.712 6.712 0 0 1-1.413-3.348 23.779 23.779 0 0 0-4.369 8.702z" class="cls-5" transform="translate(-400.385 -106.836)"/>
                <path id="Path_215" d="M411.17 115.9a17.166 17.166 0 0 0-2.773 5.848l4.471-4.14a15.49 15.49 0 0 1-1.698-1.708z" class="cls-5" transform="translate(-404.963 -112.014)"/>
                <path id="Path_216" d="M416.3 125.6l3.355-3.107c-.489-.332-.986-.69-1.474-1.073a13.19 13.19 0 0 0-1.881 4.18z" class="cls-5" transform="translate(-409.475 -115.168)"/>
            </g>
            <path id="Path_217" d="M410.509 92.125c0 3.364 3.607 6.35 6.549 8.227a6.94 6.94 0 0 0 7.47 0c2.942-1.877 6.549-4.863 6.549-8.227a10.285 10.285 0 0 0-20.569 0z" class="cls-6" transform="translate(12145.058 -16388.578)"/>
            <g id="Group_83" transform="translate(12570.301 -16296.025)">
                <path id="Path_218" d="M460.91 115.538l-5.782-5.354a6.712 6.712 0 0 0 1.413-3.348 23.789 23.789 0 0 1 4.369 8.702z" class="cls-5" transform="translate(-450.735 -106.836)"/>
                <path id="Path_219" d="M451.871 115.9a17.172 17.172 0 0 1 2.773 5.848l-4.472-4.14a15.456 15.456 0 0 0 1.699-1.708z" class="cls-5" transform="translate(-447.903 -112.014)"/>
                <path id="Path_220" d="M448.234 125.6l-3.355-3.107c.489-.332.985-.69 1.474-1.073a13.187 13.187 0 0 1 1.881 4.18z" class="cls-5" transform="translate(-444.879 -115.168)"/>
            </g>
            <path id="Path_221" d="M438.044 82.349a13.9 13.9 0 0 1 7.758 4.989c-1.868-11.099-7.333-5.472-7.758-4.989z" class="cls-4" transform="translate(12128.672 -16389.602)"/>
            <path id="Path_11192" d="M445.8 82.348a13.9 13.9 0 0 0-7.758 4.988c1.87-11.097 7.335-5.47 7.758-4.988z" class="cls-4" transform="translate(12118.755 -16389.602)"/>
        </g>
    </g>
</svg>
