<svg xmlns="http://www.w3.org/2000/svg" xmlns:xlink="http://www.w3.org/1999/xlink" width="83" height="83" viewBox="0 0 83 83">
  <defs>
    <style>
      .cls-1 {
        fill: #d6cd70;
      }

      .cls-2 {
        fill: #2a222f;
      }

      .cls-2, .cls-3 {
        stroke: #fff;
        stroke-linecap: square;
      }

      .cls-2, .cls-3, .cls-8 {
        stroke-linejoin: bevel;
      }

      .cls-3, .cls-8 {
        fill: none;
      }

      .cls-4 {
        fill: #fff;
      }

      .cls-4, .cls-6, .cls-8 {
        stroke: #011e29;
        stroke-linecap: round;
      }

      .cls-4, .cls-6 {
        stroke-linejoin: round;
      }

      .cls-5 {
        fill: #011e29;
      }

      .cls-6, .cls-7 {
        fill: #817b41;
      }

      .cls-10, .cls-9 {
        stroke: none;
      }

      .cls-10 {
        fill: #fff;
      }

      .cls-11 {
        filter: url(#Path_6806);
      }
    </style>
    <filter id="Path_6806" x="0" y="0" width="83" height="83" filterUnits="userSpaceOnUse">
      <feOffset dy="3" input="SourceAlpha"/>
      <feGaussianBlur stdDeviation="3" result="blur"/>
      <feFlood flood-opacity="0.078"/>
      <feComposite operator="in" in2="blur"/>
      <feComposite in="SourceGraphic"/>
    </filter>
  </defs>
  <g id="Group_7619" data-name="Group 7619" transform="translate(-345 -2724.734)">
    <g id="Group_7601" data-name="Group 7601" transform="translate(0 948.016)">
      <g id="Group_7566" data-name="Group 7566" transform="translate(0 949.219)">
        <g class="cls-11" transform="matrix(1, 0, 0, 1, 345, 827.5)">
          <g id="Path_6806-2" data-name="Path 6806" class="cls-1" transform="translate(9 6)">
            <path class="cls-9" d="M 32.5 64.5 C 28.1798095703125 64.5 23.98911094665527 63.65399932861328 20.04430961608887 61.98548889160156 C 16.23382949829102 60.3737907409668 12.8115701675415 58.06639862060547 9.872579574584961 55.12741851806641 C 6.933599948883057 52.18843078613281 4.62621021270752 48.76617050170898 3.014509916305542 44.9556884765625 C 1.345999956130981 41.01089096069336 0.5 36.8201904296875 0.5 32.5 C 0.5 28.1798095703125 1.345999956130981 23.98911094665527 3.014509916305542 20.04430961608887 C 4.62621021270752 16.23382949829102 6.933599948883057 12.8115701675415 9.872579574584961 9.872579574584961 C 12.8115701675415 6.933599948883057 16.23382949829102 4.62621021270752 20.04430961608887 3.014509916305542 C 23.98911094665527 1.345999956130981 28.1798095703125 0.5 32.5 0.5 C 36.8201904296875 0.5 41.01089096069336 1.345999956130981 44.9556884765625 3.014509916305542 C 48.76617050170898 4.62621021270752 52.18843078613281 6.933599948883057 55.12741851806641 9.872579574584961 C 58.06639862060547 12.8115701675415 60.3737907409668 16.23382949829102 61.98548889160156 20.04430961608887 C 63.65399932861328 23.98911094665527 64.5 28.1798095703125 64.5 32.5 C 64.5 36.8201904296875 63.65399932861328 41.01089096069336 61.98548889160156 44.9556884765625 C 60.3737907409668 48.76617050170898 58.06639862060547 52.18843078613281 55.12741851806641 55.12741851806641 C 52.18843078613281 58.06639862060547 48.76617050170898 60.3737907409668 44.9556884765625 61.98548889160156 C 41.01089096069336 63.65399932861328 36.8201904296875 64.5 32.5 64.5 Z"/>
            <path class="cls-10" d="M 32.5 1 C 28.24708938598633 1 24.12192153930664 1.832721710205078 20.23908996582031 3.475021362304688 C 16.48820877075195 5.061500549316406 13.11936950683594 7.332908630371094 10.22613906860352 10.22613906860352 C 7.332908630371094 13.11936950683594 5.061500549316406 16.48820877075195 3.475021362304688 20.23908996582031 C 1.832721710205078 24.12192153930664 1 28.24708938598633 1 32.5 C 1 36.75291061401367 1.832721710205078 40.87808227539063 3.475021362304688 44.76091003417969 C 5.061500549316406 48.51178741455078 7.332908630371094 51.88063049316406 10.22613906860352 54.77386093139648 C 13.11936950683594 57.66709136962891 16.48820877075195 59.93849945068359 20.23908996582031 61.52497863769531 C 24.12192153930664 63.16727828979492 28.24708938598633 64 32.5 64 C 36.75291061401367 64 40.87808227539063 63.16727828979492 44.76091003417969 61.52497863769531 C 48.51178741455078 59.93849945068359 51.88063049316406 57.66709136962891 54.77386093139648 54.77386093139648 C 57.66709136962891 51.88063049316406 59.93849945068359 48.51178741455078 61.52497863769531 44.76091003417969 C 63.16727828979492 40.87808227539063 64 36.75291061401367 64 32.5 C 64 28.24708938598633 63.16727828979492 24.12192153930664 61.52497863769531 20.23908996582031 C 59.93849945068359 16.48820877075195 57.66709136962891 13.11936950683594 54.77386093139648 10.22613906860352 C 51.88063049316406 7.332908630371094 48.51178741455078 5.061500549316406 44.76091003417969 3.475021362304688 C 40.87808227539063 1.832721710205078 36.75291061401367 1 32.5 1 M 32.5 0 C 50.44924926757813 0 65 14.55075073242188 65 32.5 C 65 50.44924926757813 50.44924926757813 65 32.5 65 C 14.55075073242188 65 0 50.44924926757813 0 32.5 C 0 14.55075073242188 14.55075073242188 0 32.5 0 Z"/>
          </g>
        </g>
        <g id="Group_6909" data-name="Group 6909" transform="translate(401.961 879.42)">
          <line id="Line_1" data-name="Line 1" class="cls-2" y2="3.513" transform="translate(1.756)"/>
          <line id="Line_2" data-name="Line 2" class="cls-2" x1="3.513" transform="translate(0 1.756)"/>
        </g>
        <path id="Path_6807" data-name="Path 6807" class="cls-3" d="M68.607,49.021s2.572.156,2.572,3.585h.086c0-3.429,2.572-3.585,2.572-3.585v-.088s-2.572-.156-2.572-3.585h-.086c0,3.429-2.572,3.585-2.572,3.585Z" transform="translate(293.277 813.394)"/>
        <g id="Group_6910" data-name="Group 6910" transform="translate(409.303 862.487)">
          <line id="Line_35" data-name="Line 35" class="cls-2" y2="3.513" transform="translate(1.756)"/>
          <line id="Line_36" data-name="Line 36" class="cls-2" x1="3.513" transform="translate(0 1.756)"/>
        </g>
      </g>
    </g>
    <g id="Group_7610" data-name="Group 7610" transform="translate(-12635.648 19066.902)">
      <path id="Path_52" data-name="Path 52" class="cls-4" d="M187.828,335.168a3.5,3.5,0,0,0-.668-.278,3.079,3.079,0,0,0-2.353.15,3.48,3.48,0,0,0-1.357,1.364c-1.674,2.819-1.481,5.523-3.283,7.776a20.593,20.593,0,0,1-5.794,5.416,10.5,10.5,0,0,1-3.086,1.042q-1.078-1.256-2.386-2.81a8.112,8.112,0,0,1-1.876-6.678c.041-.228.267-1.169.618-1.322a2.457,2.457,0,0,1,1.28-.154c2.038.215,5.771.515,7.617-3,0,0-5.407-2.06-7.21-1.588a3.31,3.31,0,0,0-2.305,2.564c.216-.942,1.369-3.078-2.145-3.723a47.259,47.259,0,0,0-5.249-.751,4.8,4.8,0,0,0,1.288,4.474,7.8,7.8,0,0,0,4.189,1.843.637.637,0,0,1,.494.794,7.845,7.845,0,0,1-.242.747c-1.675,4.34-.408,7.712,1.807,10.8a13.643,13.643,0,0,0-2.846,1.686,11.423,11.423,0,0,0-4.733,9.159c0,5.129,2.1,9.967,10.278,9.967,7.45,0,11.28-7.881,7.411-14.79a8.6,8.6,0,0,0,1.859-1.378s2,4.892.579,9.077v1.481l.543,5.072h3.085l-1.047-5.072V365s.252-6.095,1.54-8.339,4.506-6.3,4.635-9.647a11.615,11.615,0,0,0-2.06-6.367l.708-.392a4.952,4.952,0,0,0,2.575.392l.064,1.732.708,1.223.386-2,1.416-1.931Zm-23.046,28.676c-.214-3.784,2.36-5.458,6.373-5.308.479.017.949.051,1.414.079a8.782,8.782,0,0,1,1.74,4.362C174.675,369.438,165.065,368.835,164.782,363.843Z" transform="translate(12845.729 -16655.979)"/>
      <path id="Path_54" data-name="Path 54" class="cls-5" d="M236.783,345.922a10.534,10.534,0,0,1,2.567-1.12S237.7,342.7,236.783,345.922Z" transform="translate(12795.161 -16664.293)"/>
      <path id="Path_55" data-name="Path 55" class="cls-6" d="M237.958,383.15l-5.024-3.606a22,22,0,0,1-2,3.606,12.052,12.052,0,0,0,5.355,1.766l-2.768,3.472-.837.58-1.03.257v1.8l2.126-1.288,4.7-4.763Z" transform="translate(12800.362 -16685.188)"/>
      <path id="Path_56" data-name="Path 56" class="cls-5" d="M231.932,348.531a1.968,1.968,0,0,1-1.733-1.511,2.82,2.82,0,0,0,.838,2.732Z" transform="translate(12800.917 -16664.254)"/>
      <path id="Path_57" data-name="Path 57" class="cls-7" d="M195.316,401.751q.127.3.246.605l.026.066q.113.291.216.583l.028.082c.068.2.133.392.193.589l.017.055c.024.08.048.159.071.239,2.669-1.12,2.731-3.138,2.731-3.138A4.132,4.132,0,0,1,195.316,401.751Z" transform="translate(12822.981 -16699.492)"/>
      <path id="Path_11197" data-name="Path 11197" class="cls-7" d="M195.316,401.751q.127.3.246.605l.026.066q.113.291.216.583l.028.082c.068.2.133.392.193.589l.017.055c.024.08.048.159.071.239,2.669-1.12,2.731-3.138,2.731-3.138A4.132,4.132,0,0,1,195.316,401.751Z" transform="translate(12824.162 -16696.1)"/>
      <path id="Path_11198" data-name="Path 11198" class="cls-7" d="M0,.919q.127.3.246.605l.026.066q.113.291.216.583l.028.082c.068.2.133.392.193.589L.726,2.9c.024.08.048.159.071.239C3.466,2.018,3.528,0,3.528,0A4.132,4.132,0,0,1,0,.919Z" transform="matrix(0.485, 0.875, -0.875, 0.485, 13019.997, -16290.581)"/>
      <path id="Path_11199" data-name="Path 11199" class="cls-7" d="M0,.919q.127.3.246.605l.026.066q.113.291.216.583l.028.082c.068.2.133.392.193.589L.726,2.9c.024.08.048.159.071.239C3.466,2.018,3.528,0,3.528,0A4.132,4.132,0,0,1,0,.919Z" transform="translate(13017.121 -16288.006) rotate(111)"/>
      <path id="Path_58" data-name="Path 58" class="cls-5" d="M183.359,379.661l.214-.038q-.339-.394-.7-.82a29.936,29.936,0,0,0-4.026,1.122q.291.451.608.892A15.94,15.94,0,0,1,183.359,379.661Z" transform="translate(12833.59 -16684.373)"/>
      <path id="Path_60" data-name="Path 60" class="cls-4" d="M216.688,327.99s-.049-.2-.153-.536c-.488-1.556-2.217-5.988-6.092-5.988-4.013,0-5.772,3.949-4.013,6.524,0,0-.258-4.807,4.013-4.807,2.2,0,3.244,2.246,3.739,4.422.077.337.142.673.194,1" transform="translate(12816.354 -16648.543)"/>
      <path id="Path_61" data-name="Path 61" class="cls-7" d="M181.605,433.634c-.115-.064-2.571-1.117-2.571-1.117l1.686-.924,6.356.216,3.754-1.1.65.009,2.448-.009s1.015,1.07.9.99a22.564,22.564,0,0,0-2.606.908l3.6-.1s1.418,1.879,1.456,1.974a1.945,1.945,0,0,1,0,.477h-29.86l1.077-1.239h3.253Z" transform="translate(12841.764 -16715.227)"/>
      <path id="Path_62" data-name="Path 62" class="cls-4" d="M226.38,338.785l-3.828-1.355s.51,3.932,2.676,3.932" transform="translate(12804.328 -16658.682)"/>
      <g id="Group_51" data-name="Group 51" transform="translate(13007.671 -16322.465)">
        <path id="Path_63" data-name="Path 63" class="cls-8" d="M166.306,334.1s-.416,3.6.764,5.085" transform="translate(-166.235 -334.104)"/>
        <path id="Path_64" data-name="Path 64" class="cls-8" d="M172.068,335.031s-.543,3.817.637,5.3" transform="translate(-169.9 -334.693)"/>
      </g>
      <g id="Group_52" data-name="Group 52" transform="translate(13014.798 -16320.581)">
        <path id="Path_65" data-name="Path 65" class="cls-8" d="M196.52,340.8s-.991,2.93-2.676,3.792" transform="translate(-191.129 -340.239)"/>
        <path id="Path_66" data-name="Path 66" class="cls-8" d="M191.076,339.271s-1.656,3.166-3.341,4.029" transform="translate(-187.735 -339.271)"/>
      </g>
    </g>
  </g>
</svg>
