<svg xmlns="http://www.w3.org/2000/svg" width="83" height="83" viewBox="0 0 83 83">
    <defs>
        <filter id="Path_6806" width="83" height="83" x="0" y="0" filterUnits="userSpaceOnUse">
            <feOffset dy="3"/>
            <feGaussianBlur result="blur" stdDeviation="3"/>
            <feFlood flood-opacity=".078"/>
            <feComposite in2="blur" operator="in"/>
            <feComposite in="SourceGraphic"/>
        </filter>
        <style>
            .cls-2{fill:#2a222f;stroke:#fff;stroke-linecap:square;stroke-linejoin:bevel}.cls-7{fill:none}.cls-4{fill:#011e29}.cls-7{stroke:#011e29;stroke-linecap:round;stroke-linejoin:round}
        </style>
    </defs>
    <g id="Group_7547" transform="translate(-345 -827.5)">
        <g filter="url(#Path_6806)" transform="matrix(1, 0, 0, 1, 345, 827.5)">
            <g id="Path_6806-2" fill="#f7c451" stroke="none">
                <path d="M32.5 64.5c-4.32 0-8.51-.846-12.456-2.515-3.81-1.611-7.232-3.919-10.171-6.858-2.94-2.939-5.247-6.36-6.858-10.171C1.346 41.01.5 36.82.5 32.5s.846-8.51 2.515-12.456c1.611-3.81 3.919-7.232 6.858-10.171 2.939-2.94 6.36-5.247 10.171-6.858C23.99 1.346 28.18.5 32.5.5s8.51.846 12.456 2.515c3.81 1.611 7.232 3.919 10.171 6.858 2.94 2.939 5.247 6.36 6.858 10.171C63.654 23.99 64.5 28.18 64.5 32.5s-.846 8.51-2.515 12.456c-1.611 3.81-3.919 7.232-6.858 10.171-2.939 2.94-6.36 5.247-10.171 6.858C41.01 63.654 36.82 64.5 32.5 64.5z" transform="translate(9 6)"/>
                <path fill="#fff" d="M32.5 1c-4.253 0-8.378.833-12.26 2.475-3.752 1.587-7.12 3.858-10.014 6.751-2.893 2.893-5.164 6.262-6.751 10.013C1.833 24.122 1 28.247 1 32.5s.833 8.378 2.475 12.26c1.587 3.752 3.858 7.12 6.751 10.014 2.893 2.893 6.262 5.164 10.013 6.751C24.122 63.167 28.247 64 32.5 64s8.378-.833 12.26-2.475c3.752-1.587 7.12-3.858 10.014-6.751 2.893-2.893 5.164-6.262 6.751-10.013C63.167 40.878 64 36.753 64 32.5s-.833-8.378-2.475-12.26c-1.587-3.752-3.858-7.12-6.751-10.014-2.893-2.893-6.262-5.164-10.013-6.751C40.878 1.833 36.753 1 32.5 1m0-1C50.45 0 65 14.55 65 32.5S50.45 65 32.5 65 0 50.45 0 32.5 14.55 0 32.5 0z" transform="translate(9 6)"/>
            </g>
        </g>
        <g id="Group_6909" transform="translate(370.961 846.42)">
            <path id="Line_1" d="M0 0L0 3.513" class="cls-2" transform="translate(1.756)"/>
            <path id="Line_2" d="M3.513 0L0 0" class="cls-2" transform="translate(0 1.756)"/>
        </g>
        <path id="Path_6807" fill="none" stroke="#fff" stroke-linecap="square" stroke-linejoin="bevel" d="M68.607 49.021s2.572.156 2.572 3.585h.086c0-3.429 2.572-3.585 2.572-3.585v-.088s-2.572-.156-2.572-3.585h-.086c0 3.429-2.572 3.585-2.572 3.585z" transform="translate(315.277 793.813)"/>
        <g id="Group_6910" transform="translate(391.303 890.701)">
            <path id="Line_35" d="M0 0L0 3.513" class="cls-2" transform="translate(1.756)"/>
            <path id="Line_36" d="M3.513 0L0 0" class="cls-2" transform="translate(0 1.756)"/>
        </g>
        <g id="Group_7552" transform="translate(-12243.461 17169.561)">
            <path id="Path_196" d="M52.842 271.582a3.739 3.739 0 0 1 0-1.028l3.746-1.261 5.584-.635 10.021-.009h1.659s.835 1.059.74.98a16.5 16.5 0 0 0-2.142.9l2.961-.095s1.166 1.859 1.2 1.953a2.3 2.3 0 0 1 0 .473h-31.67l.892-1.235h5.158z" class="cls-4" transform="translate(12572.693 -16558.594)"/>
            <path id="Path_197" d="M22.447 240.17a38.1 38.1 0 0 1-5.26.648 3.905 3.905 0 0 0-2.837 1.6 10.733 10.733 0 0 0-1.63 2.618c-.324 1.185 3.314-.793 3.636.091l.563-.267s.038-1.492-2.468-.583l.6-.813a3.951 3.951 0 0 1 2.825-1.669 27.382 27.382 0 0 1 3.282-.1c2.168.105 1.289-1.525 1.289-1.525z" class="cls-4" transform="translate(12593.3 -16540.439)"/>
            <path id="Path_198" d="M22.992 252.4s-.69.319-.508 1.693a4.112 4.112 0 0 1-.357 2.816s.615-.033.854-.861l.011-.039c.23-.866.1.467.1.467a2.711 2.711 0 0 0 .608-2.021 2.633 2.633 0 0 0-.708-2.055z" class="cls-4" transform="translate(12586.852 -16548.615)"/>
            <path id="Path_199" fill="#fff" stroke="#011e29" stroke-linecap="round" stroke-linejoin="round" d="M69.378 187.931a13.875 13.875 0 0 0-2.3-1.685 5.767 5.767 0 0 0-1.618-1.424s-1.252-3.262-7.426-3.143l.684 1.022s-4.223-2.247-8.323-.092a7.91 7.91 0 0 0-3.327 2.967 6.978 6.978 0 0 0-2.957 2.266c-1.634 2.389-1.912 6.9-1.912 6.9l2.12-1.548-2.449 3.423c-1.99 1.7-3.669 2.09-6.391 2.781a8.1 8.1 0 0 0-4.339 3.4s.329 5.179-1.76 7.18-2.267 1.463-2.267 1.463l-.476 3.238-.2 1.344.8 1.293H31.4s.493-1.283-.817-1.283a12.226 12.226 0 0 1-1.46-.033s-.667.084-.293-1.318l.536-2.009a12.444 12.444 0 0 0 4.681-1.749c2.734-1.586 3.694-3.754 5.123-4.313s4.562-.027 7.293.558a12.561 12.561 0 0 0 3.335.157l-.324 3.146-.2 1.344.8 1.293h4.168s.493-1.283-.817-1.283a12.078 12.078 0 0 1-1.461-.036s-.667.084-.293-1.318l.536-2.009s1.223-.97 3.087-2.16a12.289 12.289 0 0 0 5.38-2.882L60.057 205a6.6 6.6 0 0 0 2.819-2.6l-.184 1.256s1.522-1.251 1.629-2.39a7.991 7.991 0 0 1 .74-2.392l-.276 1.883a4.7 4.7 0 0 0 1.11-2.656c1.878-1.443.835-5.139 1.083-4.965s.936.667.936.667a3.154 3.154 0 0 0 .369-3.168l.516-1.055s.742-1.288.579-1.649z" transform="translate(12584.521 -16503.057)"/>
            <path id="Path_200" d="M134.947 195.507s-.861-1.416-1.555.569a1.456 1.456 0 0 0 .842.144c.669.916 1.287.516 1.287.516z" class="cls-4" transform="translate(12514.743 -16511.668)"/>
            <path id="Path_202" d="M140.4 199.542c-.028.191-.03.424.455.54a3.5 3.5 0 0 1 .473.15l.152-.15" class="cls-7" transform="translate(12511.695 -16513.053)"/>
            <path id="Path_203" d="M55.91 250.354a2.269 2.269 0 0 0-.291.141c.324.732.918 3.447-.322 4.9a10.725 10.725 0 0 1-2.669 2.237l1.086 3.135h2.2l-.413-3.132s4.257-2.677 4.914-4.088a14.25 14.25 0 0 0 .873-3.018c-2.165-.389-4.278-.607-5.378-.175z" class="cls-4" transform="translate(12567.781 -16546.799)"/>
            <path id="Path_204" fill="#fff" stroke="#011e29" d="M89.476 187.586a3.33 3.33 0 0 0 .646-2.294 7.282 7.282 0 0 1 3.244-.47s-1.252-3.262-7.426-3.143l.684 1.022s-4.223-2.247-8.323-.092a7.91 7.91 0 0 0-3.327 2.967 6.978 6.978 0 0 0-2.957 2.266c-1.634 2.389-1.912 6.9-1.912 6.9l2.12-1.548a6.609 6.609 0 0 0 3.708 6.4l.081-1.423a4.437 4.437 0 0 0 1.549 2.985l1.4-3.386s2.363-.807 3.379 3.19 6.244 2.456 6.244 2.456l-.62 1.584a6.6 6.6 0 0 0 2.819-2.6l-.184 1.256s1.522-1.251 1.629-2.39a7.99 7.99 0 0 1 .74-2.392l-.276 1.883A4.7 4.7 0 0 0 93.8 198.1c1.878-1.443.835-5.139 1.083-4.965a4.482 4.482 0 0 0-2.639-1.422c-1.332-.005-5.405-.394-2.768-4.127z" transform="translate(12556.61 -16503.057)"/>
            <path id="Path_205" d="M106.83 247.318l4.367 6.9h2.04l-3.072-8.292a17.6 17.6 0 0 1-3.332 1.391z" class="cls-4" transform="translate(12533.14 -16544.119)"/>
            <path id="Path_206" d="M64.489 245.925a5.644 5.644 0 0 0-5.139 4.367 3.837 3.837 0 0 1 .949-1.037 2.65 2.65 0 0 1 1.033-.384 6.623 6.623 0 0 1 3.157-2.946z" class="cls-4" transform="translate(12562.977 -16546.195)"/>
            <path id="Path_207" d="M91.168 243.324l.4-1.912s3.08-1.586 3.132-3.413" class="cls-7" transform="translate(12543.149 -16539.053)"/>
        </g>
    </g>
</svg>
