<svg xmlns="http://www.w3.org/2000/svg" width="83" height="83" viewBox="0 0 83 83">
    <defs>
        <filter id="Path_6806" width="83" height="83" x="0" y="0" filterUnits="userSpaceOnUse">
            <feOffset dy="3"/>
            <feGaussianBlur result="blur" stdDeviation="3"/>
            <feFlood flood-opacity=".078"/>
            <feComposite in2="blur" operator="in"/>
            <feComposite in="SourceGraphic"/>
        </filter>
        <style>
            .cls-2{fill:#2a222f;stroke:#fff}.cls-2,.cls-5{stroke-linecap:square;stroke-linejoin:bevel}.cls-5,.cls-7{fill:#fff;stroke:#011e29}.cls-6{fill:#c42ac9}.cls-7{stroke-linecap:round;stroke-linejoin:round}
        </style>
    </defs>
    <g id="Group_7573" transform="translate(-345 -1776.719)">
        <g id="Group_7566" transform="translate(0 949.219)">
            <g filter="url(#Path_6806)" transform="matrix(1, 0, 0, 1, 345, 827.5)">
                <g id="Path_6806-2" fill="#fc9eff" stroke="none">
                    <path d="M32.5 64.5c-4.32 0-8.51-.846-12.456-2.515-3.81-1.611-7.232-3.919-10.171-6.858-2.94-2.939-5.247-6.36-6.858-10.171C1.346 41.01.5 36.82.5 32.5s.846-8.51 2.515-12.456c1.611-3.81 3.919-7.232 6.858-10.171 2.939-2.94 6.36-5.247 10.171-6.858C23.99 1.346 28.18.5 32.5.5s8.51.846 12.456 2.515c3.81 1.611 7.232 3.919 10.171 6.858 2.94 2.939 5.247 6.36 6.858 10.171C63.654 23.99 64.5 28.18 64.5 32.5s-.846 8.51-2.515 12.456c-1.611 3.81-3.919 7.232-6.858 10.171-2.939 2.94-6.36 5.247-10.171 6.858C41.01 63.654 36.82 64.5 32.5 64.5z" transform="translate(9 6)"/>
                    <path fill="#fff" d="M32.5 1c-4.253 0-8.378.833-12.26 2.475-3.752 1.587-7.12 3.858-10.014 6.751-2.893 2.893-5.164 6.262-6.751 10.013C1.833 24.122 1 28.247 1 32.5s.833 8.378 2.475 12.26c1.587 3.752 3.858 7.12 6.751 10.014 2.893 2.893 6.262 5.164 10.013 6.751C24.122 63.167 28.247 64 32.5 64s8.378-.833 12.26-2.475c3.752-1.587 7.12-3.858 10.014-6.751 2.893-2.893 5.164-6.262 6.751-10.013C63.167 40.878 64 36.753 64 32.5s-.833-8.378-2.475-12.26c-1.587-3.752-3.858-7.12-6.751-10.014-2.893-2.893-6.262-5.164-10.013-6.751C40.878 1.833 36.753 1 32.5 1m0-1C50.45 0 65 14.55 65 32.5S50.45 65 32.5 65 0 50.45 0 32.5 14.55 0 32.5 0z" transform="translate(9 6)"/>
                </g>
            </g>
            <g id="Group_6909" transform="translate(376.961 888.42)">
                <path id="Line_1" d="M0 0L0 3.513" class="cls-2" transform="translate(1.756)"/>
                <path id="Line_2" d="M3.513 0L0 0" class="cls-2" transform="translate(0 1.756)"/>
            </g>
            <path id="Path_6807" fill="none" stroke="#fff" stroke-linecap="square" stroke-linejoin="bevel" d="M68.607 49.021s2.572.156 2.572 3.585h.086c0-3.429 2.572-3.585 2.572-3.585v-.088s-2.572-.156-2.572-3.585h-.086c0 3.429-2.572 3.585-2.572 3.585z" transform="translate(315.277 793.813)"/>
            <g id="Group_6910" transform="translate(409.303 862.487)">
                <path id="Line_35" d="M0 0L0 3.513" class="cls-2" transform="translate(1.756)"/>
                <path id="Line_36" d="M3.513 0L0 0" class="cls-2" transform="translate(0 1.756)"/>
            </g>
        </g>
        <g id="Group_7570" transform="translate(-12377.059 18117.795)">
            <path id="Path_115" fill="#fff" stroke="#011e29" d="M313.575 228.148v-13.194h-1.835v13.194a2.436 2.436 0 0 1 1.835 0z" transform="translate(12450.835 -16522.217)"/>
            <path id="Path_116" d="M283.43 201.925c-3.221.081-4.07.983-7.7 3.124a7.784 7.784 0 0 1-1.1.543c-1.388.542-2.738-.747-3.154-2.734-.372-1.769-1.823-2.412-2.658-1.078a3.607 3.607 0 0 0 .992 4.63c2.936 2.245 5.522 2.144 9.071-.884a4.337 4.337 0 0 1 4.514-.86V202.5a4.452 4.452 0 0 1 .035-.575z" class="cls-5" transform="translate(12478.263 -16515.893)"/>
            <path id="Path_117" d="M311.08 192.666a11.349 11.349 0 0 0-1.835 5.63h3.669a11.355 11.355 0 0 0-1.834-5.63z" class="cls-6" transform="translate(12452.412 -16510.119)"/>
            <path id="Path_119" d="M306.834 257.5a2.367 2.367 0 0 1-2.367-2.367v-2.968a1.835 1.835 0 0 0-3.669 0v2.968a2.366 2.366 0 0 1-2.367 2.367h-2.547v.789h13.5v-.789z" class="cls-5" transform="translate(12460.861 -16544.6)"/>
            <path id="Rectangle_1" d="M0 0H24.737V0.789H0z" class="cls-6" transform="translate(12751.125 -16286.317)"/>
            <path id="Path_120" d="M315.524 189.847a1.8 1.8 0 1 1-1.8-1.8 1.8 1.8 0 0 1 1.8 1.8z" class="cls-6" transform="translate(12449.767 -16507.672)"/>
            <g id="Group_57" transform="translate(12741.529 -16308.506)">
                <path id="Path_121" d="M263.234 211.572l-6.788 13.864h13.577z" class="cls-7" transform="translate(-255.73 -211.572)"/>
                <path id="Path_122" d="M256.446 249.28h15.025a8.216 8.216 0 0 1-15.025 0z" class="cls-6" transform="translate(-256.446 -235.418)"/>
            </g>
            <path id="Path_123" d="M319.228 201.925c3.221.081 4.07.983 7.7 3.124a7.746 7.746 0 0 0 1.1.543c1.388.542 2.737-.747 3.154-2.734.371-1.769 1.823-2.412 2.657-1.078a3.608 3.608 0 0 1-.992 4.63c-2.936 2.245-5.522 2.144-9.071-.884a4.336 4.336 0 0 0-4.513-.86V202.5a4.5 4.5 0 0 0-.035-.575z" class="cls-5" transform="translate(12446.1 -16515.893)"/>
            <g id="Group_58" transform="translate(12770.373 -16308.506)">
                <path id="Path_124" d="M341.985 211.572l6.788 13.864H335.2z" class="cls-7" transform="translate(-334.37 -211.572)"/>
                <path id="Path_125" d="M350.433 249.28H335.22a8.361 8.361 0 0 0 15.213 0z" class="cls-6" transform="translate(-335.22 -235.416)"/>
            </g>
            <path id="Path_11195" d="M312.913 206.048v-3.494h-3.669v3.494a1.837 1.837 0 1 0 3.669 0z" class="cls-5" transform="translate(12452.414 -16514.377)"/>
        </g>
    </g>
</svg>
