<svg xmlns="http://www.w3.org/2000/svg" xmlns:xlink="http://www.w3.org/1999/xlink" width="83" height="83" viewBox="0 0 83 83">
  <defs>
    <style>
      .cls-1 {
        fill: #c5ef57;
      }

      .cls-2 {
        fill: #2a222f;
      }

      .cls-2, .cls-3 {
        stroke: #fff;
        stroke-linecap: square;
      }

      .cls-2, .cls-3, .cls-5 {
        stroke-linejoin: bevel;
      }

      .cls-3, .cls-5, .cls-6 {
        fill: none;
      }

      .cls-4 {
        fill: #fff;
      }

      .cls-4, .cls-5, .cls-6, .cls-8 {
        stroke: #011e29;
      }

      .cls-4, .cls-5, .cls-6 {
        stroke-linecap: round;
      }

      .cls-4, .cls-6 {
        stroke-linejoin: round;
      }

      .cls-7 {
        fill: #6c8232;
      }

      .cls-8 {
        fill: #011e29;
        stroke-width: 0.5px;
      }

      .cls-10, .cls-9 {
        stroke: none;
      }

      .cls-10 {
        fill: #fff;
      }

      .cls-11 {
        filter: url(#Path_6806);
      }
    </style>
    <filter id="Path_6806" x="0" y="0" width="83" height="83" filterUnits="userSpaceOnUse">
      <feOffset dy="3" input="SourceAlpha"/>
      <feGaussianBlur stdDeviation="3" result="blur"/>
      <feFlood flood-opacity="0.078"/>
      <feComposite operator="in" in2="blur"/>
      <feComposite in="SourceGraphic"/>
    </filter>
  </defs>
  <g id="Group_7613" data-name="Group 7613" transform="translate(-345 -2961.74)">
    <g id="Group_7605" data-name="Group 7605" transform="translate(0 1185.021)">
      <g id="Group_7566" data-name="Group 7566" transform="translate(0 949.219)">
        <g class="cls-11" transform="matrix(1, 0, 0, 1, 345, 827.5)">
          <g id="Path_6806-2" data-name="Path 6806" class="cls-1" transform="translate(9 6)">
            <path class="cls-9" d="M 32.5 64.5 C 28.1798095703125 64.5 23.98911094665527 63.65399932861328 20.04430961608887 61.98548889160156 C 16.23382949829102 60.3737907409668 12.8115701675415 58.06639862060547 9.872579574584961 55.12741851806641 C 6.933599948883057 52.18843078613281 4.62621021270752 48.76617050170898 3.014509916305542 44.9556884765625 C 1.345999956130981 41.01089096069336 0.5 36.8201904296875 0.5 32.5 C 0.5 28.1798095703125 1.345999956130981 23.98911094665527 3.014509916305542 20.04430961608887 C 4.62621021270752 16.23382949829102 6.933599948883057 12.8115701675415 9.872579574584961 9.872579574584961 C 12.8115701675415 6.933599948883057 16.23382949829102 4.62621021270752 20.04430961608887 3.014509916305542 C 23.98911094665527 1.345999956130981 28.1798095703125 0.5 32.5 0.5 C 36.8201904296875 0.5 41.01089096069336 1.345999956130981 44.9556884765625 3.014509916305542 C 48.76617050170898 4.62621021270752 52.18843078613281 6.933599948883057 55.12741851806641 9.872579574584961 C 58.06639862060547 12.8115701675415 60.3737907409668 16.23382949829102 61.98548889160156 20.04430961608887 C 63.65399932861328 23.98911094665527 64.5 28.1798095703125 64.5 32.5 C 64.5 36.8201904296875 63.65399932861328 41.01089096069336 61.98548889160156 44.9556884765625 C 60.3737907409668 48.76617050170898 58.06639862060547 52.18843078613281 55.12741851806641 55.12741851806641 C 52.18843078613281 58.06639862060547 48.76617050170898 60.3737907409668 44.9556884765625 61.98548889160156 C 41.01089096069336 63.65399932861328 36.8201904296875 64.5 32.5 64.5 Z"/>
            <path class="cls-10" d="M 32.5 1 C 28.24708938598633 1 24.12192153930664 1.832721710205078 20.23908996582031 3.475021362304688 C 16.48820877075195 5.061500549316406 13.11936950683594 7.332908630371094 10.22613906860352 10.22613906860352 C 7.332908630371094 13.11936950683594 5.061500549316406 16.48820877075195 3.475021362304688 20.23908996582031 C 1.832721710205078 24.12192153930664 1 28.24708938598633 1 32.5 C 1 36.75291061401367 1.832721710205078 40.87808227539063 3.475021362304688 44.76091003417969 C 5.061500549316406 48.51178741455078 7.332908630371094 51.88063049316406 10.22613906860352 54.77386093139648 C 13.11936950683594 57.66709136962891 16.48820877075195 59.93849945068359 20.23908996582031 61.52497863769531 C 24.12192153930664 63.16727828979492 28.24708938598633 64 32.5 64 C 36.75291061401367 64 40.87808227539063 63.16727828979492 44.76091003417969 61.52497863769531 C 48.51178741455078 59.93849945068359 51.88063049316406 57.66709136962891 54.77386093139648 54.77386093139648 C 57.66709136962891 51.88063049316406 59.93849945068359 48.51178741455078 61.52497863769531 44.76091003417969 C 63.16727828979492 40.87808227539063 64 36.75291061401367 64 32.5 C 64 28.24708938598633 63.16727828979492 24.12192153930664 61.52497863769531 20.23908996582031 C 59.93849945068359 16.48820877075195 57.66709136962891 13.11936950683594 54.77386093139648 10.22613906860352 C 51.88063049316406 7.332908630371094 48.51178741455078 5.061500549316406 44.76091003417969 3.475021362304688 C 40.87808227539063 1.832721710205078 36.75291061401367 1 32.5 1 M 32.5 0 C 50.44924926757813 0 65 14.55075073242188 65 32.5 C 65 50.44924926757813 50.44924926757813 65 32.5 65 C 14.55075073242188 65 0 50.44924926757813 0 32.5 C 0 14.55075073242188 14.55075073242188 0 32.5 0 Z"/>
          </g>
        </g>
        <g id="Group_6909" data-name="Group 6909" transform="translate(401.961 848.906)">
          <line id="Line_1" data-name="Line 1" class="cls-2" y2="3.513" transform="translate(1.756)"/>
          <line id="Line_2" data-name="Line 2" class="cls-2" x1="3.513" transform="translate(0 1.756)"/>
        </g>
        <path id="Path_6807" data-name="Path 6807" class="cls-3" d="M68.607,49.021s2.572.156,2.572,3.585h.086c0-3.429,2.572-3.585,2.572-3.585v-.088s-2.572-.156-2.572-3.585h-.086c0,3.429-2.572,3.585-2.572,3.585Z" transform="translate(298.277 832.813)"/>
        <g id="Group_6910" data-name="Group 6910" transform="translate(409.303 862.487)">
          <line id="Line_35" data-name="Line 35" class="cls-2" y2="3.513" transform="translate(1.756)"/>
          <line id="Line_36" data-name="Line 36" class="cls-2" x1="3.513" transform="translate(0 1.756)"/>
        </g>
      </g>
    </g>
    <g id="Group_7612" data-name="Group 7612" transform="translate(-12703.381 19301.406)">
      <g id="Group_42" data-name="Group 42" transform="translate(13070 -16327.077)">
        <path id="Path_23" data-name="Path 23" class="cls-4" d="M390.025,332.348c-.071.066-.144.136-.216.208a12.159,12.159,0,0,0-.882,16.151,9.1,9.1,0,0,0,1.59,1.578c.149.113.4.314.615.521a.657.657,0,0,1-.006.965,8,8,0,0,0-2.652,3.875,4.935,4.935,0,0,0,1.3,4.6,48.7,48.7,0,0,0,4.174-3.5c2.716-2.467-.349-4.863-1.049-5.568.742.674,2.781,2.615,4.3,2.144,1.829-.565,5.432-5.294,5.432-5.294-3.519-2.071-6.614.215-8.276,1.508a2.528,2.528,0,0,1-1.2.559c-.389.058-1.1-.642-1.256-.818a8.249,8.249,0,0,1-2.041-4.753,11.993,11.993,0,0,1-.014-1.434q.023-.321.071-.657l-.013-.009c.868-7.28,9.175-7.51,10.269-1.779a12.572,12.572,0,0,0,6.247,8.785c5.467-5.466,5.418-11.959,1.318-16.059S395.614,327.15,390.025,332.348Z" transform="translate(-386.275 -325.514)"/>
        <g id="Group_41" data-name="Group 41" transform="translate(4.146 23.503)">
          <g id="Group_39" data-name="Group 39" transform="translate(6.038 0)">
            <path id="Path_24" data-name="Path 24" class="cls-5" d="M416.566,375.7a2.323,2.323,0,0,0-2.481-.832" transform="translate(-411.924 -374.811)"/>
            <path id="Path_25" data-name="Path 25" class="cls-5" d="M412.977,379.79a3.532,3.532,0,0,0-3.021-1.06" transform="translate(-409.956 -377.176)"/>
          </g>
          <g id="Group_40" data-name="Group 40" transform="translate(0 5.274)">
            <path id="Path_26" data-name="Path 26" class="cls-5" d="M397.09,394.144a4.025,4.025,0,0,1-.781-3.391" transform="translate(-396.182 -389.41)"/>
            <path id="Path_27" data-name="Path 27" class="cls-5" d="M401.056,390.364a3.894,3.894,0,0,1-.39-3.144" transform="translate(-398.392 -387.22)"/>
          </g>
        </g>
        <path id="Path_28" data-name="Path 28" class="cls-6" d="M410.463,329.8s-3.714-.979-7.093,3.051l7.187,2.1" transform="translate(-396.018 -325.752)"/>
        <path id="Path_29" data-name="Path 29" class="cls-5" d="M418.6,351.054a5.481,5.481,0,0,1,3.514-3.514" transform="translate(-404.697 -335.923)"/>
        <path id="Path_30" data-name="Path 30" class="cls-7" d="M426.035,323.9c-.881,1.468-4.843.959-6.508.68a14.515,14.515,0,0,1,7.167,3.81,10.3,10.3,0,0,1,1.884,2.567h0c2.251-3.926-1.152-10.424-1.152-10.424A11.442,11.442,0,0,1,426.035,323.9Z" transform="translate(-405.226 -320.529)"/>
        <path id="Path_31" data-name="Path 31" class="cls-8" d="M434.487,357.444a14.166,14.166,0,0,1,.8,2.716A1.611,1.611,0,0,0,434.487,357.444Z" transform="translate(-413.752 -341.567)"/>
      </g>
      <g id="Group_47" data-name="Group 47" transform="translate(13085.35 -16309.989)">
        <path id="Path_32" data-name="Path 32" class="cls-4" d="M442.626,381.44q.107-.1.216-.209a12.159,12.159,0,0,0,.882-16.151,9.125,9.125,0,0,0-1.59-1.578c-.149-.113-.4-.315-.616-.521a.658.658,0,0,1,.006-.965,8,8,0,0,0,2.652-3.875,4.933,4.933,0,0,0-1.3-4.6,48.473,48.473,0,0,0-4.174,3.5c-2.716,2.468.349,4.863,1.049,5.567-.741-.674-2.781-2.615-4.3-2.144-1.829.565-5.432,5.294-5.432,5.294,3.518,2.071,6.614-.216,8.276-1.508a2.527,2.527,0,0,1,1.2-.56c.39-.058,1.1.642,1.256.819a8.251,8.251,0,0,1,2.041,4.753,12.108,12.108,0,0,1,.014,1.434c-.016.215-.039.434-.071.658l.013.009c-.868,7.28-9.175,7.51-10.269,1.779a12.572,12.572,0,0,0-6.248-8.786c-5.466,5.466-5.418,11.959-1.318,16.058S437.038,386.638,442.626,381.44Z" transform="translate(-421.964 -353.539)"/>
        <g id="Group_46" data-name="Group 46" transform="translate(9.585 1.224)">
          <g id="Group_44" data-name="Group 44" transform="translate(0 7.393)">
            <path id="Path_33" data-name="Path 33" class="cls-5" d="M444.251,377.593s.482,1.058,2.275.746" transform="translate(-444.251 -375.865)"/>
            <path id="Path_34" data-name="Path 34" class="cls-5" d="M448.02,373.574a3.535,3.535,0,0,0,3.021,1.06" transform="translate(-446.399 -373.574)"/>
          </g>
          <g id="Group_45" data-name="Group 45" transform="translate(8.016)">
            <path id="Path_35" data-name="Path 35" class="cls-5" d="M466.974,356.385a3.917,3.917,0,0,1,.606,3.275" transform="translate(-465.218 -356.385)"/>
            <path id="Path_36" data-name="Path 36" class="cls-5" d="M462.89,360.082a3.916,3.916,0,0,1,.606,3.276" transform="translate(-462.89 -358.492)"/>
          </g>
        </g>
        <path id="Path_37" data-name="Path 37" class="cls-6" d="M445.014,418.066s3.714.979,7.093-3.051l-7.187-2.1" transform="translate(-435.047 -387.377)"/>
        <path id="Path_38" data-name="Path 38" class="cls-5" d="M441.744,399.12a5.483,5.483,0,0,1-3.514,3.514" transform="translate(-431.234 -379.516)"/>
        <path id="Path_39" data-name="Path 39" class="cls-7" d="M425.952,417.119c.881-1.468,4.843-.96,6.508-.68a14.511,14.511,0,0,1-7.167-3.811,10.3,10.3,0,0,1-1.884-2.566h0c-2.25,3.926,1.153,10.424,1.153,10.424A11.442,11.442,0,0,1,425.952,417.119Z" transform="translate(-422.349 -385.752)"/>
        <path id="Path_40" data-name="Path 40" class="cls-8" d="M428.808,393.787a14.172,14.172,0,0,1-.8-2.716A1.611,1.611,0,0,0,428.808,393.787Z" transform="translate(-425.131 -374.929)"/>
      </g>
    </g>
  </g>
</svg>
