<svg xmlns="http://www.w3.org/2000/svg" width="83" height="83" viewBox="0 0 83 83">
    <defs>
        <filter id="Path_6806" width="83" height="83" x="0" y="0" filterUnits="userSpaceOnUse">
            <feOffset dy="3"/>
            <feGaussianBlur result="blur" stdDeviation="3"/>
            <feFlood flood-opacity=".078"/>
            <feComposite in2="blur" operator="in"/>
            <feComposite in="SourceGraphic"/>
        </filter>
        <style>
            .cls-2{fill:#2a222f;stroke:#fff;stroke-linecap:square}.cls-2,.cls-8{stroke-linejoin:bevel}.cls-10,.cls-11,.cls-8{fill:none}.cls-4,.cls-7{fill:#8d295b}.cls-10,.cls-11,.cls-4,.cls-5,.cls-8{stroke:#011e29}.cls-4{stroke-width:.5px}.cls-5{fill:#fff}.cls-10,.cls-11,.cls-5,.cls-8{stroke-linecap:round}.cls-10,.cls-5{stroke-linejoin:round}.cls-6{fill:#011e29}
        </style>
    </defs>
    <g id="Group_7592" transform="translate(-345 -1776.719)">
        <g id="Group_7566" transform="translate(0 949.219)">
            <g filter="url(#Path_6806)" transform="matrix(1, 0, 0, 1, 345, 827.5)">
                <g id="Path_6806-2" fill="#e665a5" stroke="none">
                    <path d="M32.5 64.5c-4.32 0-8.51-.846-12.456-2.515-3.81-1.611-7.232-3.919-10.171-6.858-2.94-2.939-5.247-6.36-6.858-10.171C1.346 41.01.5 36.82.5 32.5s.846-8.51 2.515-12.456c1.611-3.81 3.919-7.232 6.858-10.171 2.939-2.94 6.36-5.247 10.171-6.858C23.99 1.346 28.18.5 32.5.5s8.51.846 12.456 2.515c3.81 1.611 7.232 3.919 10.171 6.858 2.94 2.939 5.247 6.36 6.858 10.171C63.654 23.99 64.5 28.18 64.5 32.5s-.846 8.51-2.515 12.456c-1.611 3.81-3.919 7.232-6.858 10.171-2.939 2.94-6.36 5.247-10.171 6.858C41.01 63.654 36.82 64.5 32.5 64.5z" transform="translate(9 6)"/>
                    <path fill="#fff" d="M32.5 1c-4.253 0-8.378.833-12.26 2.475-3.752 1.587-7.12 3.858-10.014 6.751-2.893 2.893-5.164 6.262-6.751 10.013C1.833 24.122 1 28.247 1 32.5s.833 8.378 2.475 12.26c1.587 3.752 3.858 7.12 6.751 10.014 2.893 2.893 6.262 5.164 10.013 6.751C24.122 63.167 28.247 64 32.5 64s8.378-.833 12.26-2.475c3.752-1.587 7.12-3.858 10.014-6.751 2.893-2.893 5.164-6.262 6.751-10.013C63.167 40.878 64 36.753 64 32.5s-.833-8.378-2.475-12.26c-1.587-3.752-3.858-7.12-6.751-10.014-2.893-2.893-6.262-5.164-10.013-6.751C40.878 1.833 36.753 1 32.5 1m0-1C50.45 0 65 14.55 65 32.5S50.45 65 32.5 65 0 50.45 0 32.5 14.55 0 32.5 0z" transform="translate(9 6)"/>
                </g>
            </g>
            <g id="Group_6909" transform="translate(401.961 879.42)">
                <path id="Line_1" d="M0 0L0 3.513" class="cls-2" transform="translate(1.756)"/>
                <path id="Line_2" d="M3.513 0L0 0" class="cls-2" transform="translate(0 1.756)"/>
            </g>
            <path id="Path_6807" fill="none" stroke="#fff" stroke-linecap="square" stroke-linejoin="bevel" d="M68.607 49.021s2.572.156 2.572 3.585h.086c0-3.429 2.572-3.585 2.572-3.585v-.088s-2.572-.156-2.572-3.585h-.086c0 3.429-2.572 3.585-2.572 3.585z" transform="translate(300.277 799.813)"/>
            <g id="Group_6910" transform="translate(409.303 862.487)">
                <path id="Line_35" d="M0 0L0 3.513" class="cls-2" transform="translate(1.756)"/>
                <path id="Line_36" d="M3.513 0L0 0" class="cls-2" transform="translate(0 1.756)"/>
            </g>
        </g>
        <g id="Group_7596" transform="translate(-12574.716 18120.533)">
            <path id="Path_67" d="M87.884 395.6s-.209 5.743-.807 7.388l.12 3.379.539.628.084 1.655 2.077-.009-1.145-2.154-.209-3.528a62.938 62.938 0 0 1 2.063-5.951l.253-3.49z" class="cls-4" transform="translate(12878.437 -16693.529)"/>
            <path id="Path_68" d="M50.8 345.333a48.12 48.12 0 0 1 6.916-.519c2.41.132 3.148 2.954 3.148 2.954l.007-2.252a28.393 28.393 0 0 1-.4 7l-.09.334a11.439 11.439 0 0 0 .823 2.667 8.409 8.409 0 0 1-.035 5.3l-.747 2.2a8.407 8.407 0 0 1-1.826 3.048c-.717.765-1.524 1.649-1.759 1.993-.448.658-2.063 5.951-2.063 5.951l.209 3.528 1.145 2.154-2.078.009-.084-1.655-.539-.628-.119-3.379a30.528 30.528 0 0 0 .807-5.891c-3.678 2.093-8.7 2.033-8.7 2.033s-4.964 5.831-5.2 6.519-.957 4.336-.957 4.336l.688 1.734h-1.2l-1.283-1.369a12.732 12.732 0 0 0 1.167-6.728c1.465-.927 1.913-3.528 1.913-3.528-1.048-.622-1.472-2.266-1.644-3.5a3.725 3.725 0 0 1 .844-2.957c.045-.052.091-.1.136-.147a11.209 11.209 0 0 1 4.456-2.722l5.007-1.658a8.411 8.411 0 0 0 3.279-2.011 8.417 8.417 0 0 0 2.395-4.705l-.7-.765.022.679a2.474 2.474 0 0 1-.975-1.468l-.361.372-.241-1.248-4.07-2.158" class="cls-5" transform="translate(12909.573 -16664.58)"/>
            <path id="Path_69" d="M60.323 397.816a7.745 7.745 0 0 1-1.5 6.291s.825.005 2.214-.036a10.957 10.957 0 0 0-.714-6.255z" class="cls-6" transform="translate(12895.235 -16698.504)"/>
            <path id="Path_70" d="M82.6 399.186s-.621 3.622-1.442 7.194c.485-.28.968-.567 1.442-.869a13.894 13.894 0 0 0 0-6.325z" class="cls-6" transform="translate(12881.77 -16701.961)"/>
            <path id="Path_71" d="M50.686 405.165s-1.122 1.318-2.325 2.775a3.9 3.9 0 0 1-1.336 1.71 12.727 12.727 0 0 1-1.167 6.728l1.286 1.375h1.2l-.687-1.734s.718-3.648.957-4.336 5.2-6.519 5.2-6.519a22.4 22.4 0 0 0 5.489-.748c.06-.756.086-1.285.086-1.285-3.68 2.094-8.703 2.034-8.703 2.034z" class="cls-4" transform="translate(12904.304 -16699.563)"/>
            <g id="Group_7233" transform="translate(12957.615 -16330.087)">
                <path id="Path_73" d="M87 329.07a2.293 2.293 0 0 0-1.818 2.081c.044.789-1.466 4.319-.855 3.79l2.147-.526 2.1-.022 1.821 1.862h.263l-.635-3.593-1.753-.372-.275-.3 2.006.252-.066-2.1-.591.153s-.193-1.619-2.344-1.225z" class="cls-5" transform="translate(-79.863 -327.035)"/>
                <path id="Path_74" d="M75.732 324.214c-2.578 1.684.591 5.131-3.155 7.7a2.484 2.484 0 0 0 2.3-1.172l-.789 1.338s2.5-.221 2.5-4.274c0-3.065 2.27-1.676 2.27-1.676l1.283-.443s-1.789-3.187-4.409-1.473z" class="cls-7" transform="translate(-72.577 -323.709)"/>
            </g>
            <path id="Path_75" d="M24.561 387.863c-.088-4.824 3.8-1.914 3.8-1.914l.973-.686s-2.16-3.546-5.472-1.694c-5.287 2.954.548 6.973-5.289 12.746 0 0 4.423.859 5.794-2.575 1.149-2.882.221-4.378.194-5.877z" class="cls-7" transform="translate(12921.429 -16686.973)"/>
            <path id="Path_76" d="M48.385 437.108c-.1-.065-2.181-1.141-2.181-1.141l1.43-.943 6.5-.889 2.078-.009.552.009 2.077-.009s.861 1.093.764 1.011a16.983 16.983 0 0 0-2.211.927l3.056-.1s1.2 1.919 1.235 2.016a2.4 2.4 0 0 1 0 .488H36.352l.914-1.266h2.76z" class="cls-7" transform="translate(12910.27 -16719.014)"/>
            <path id="Path_77" d="M77.745 346.172A34.691 34.691 0 0 0 72.5 347c-.492.2-2.355 1.255-3.187 1.76a1.4 1.4 0 0 0-.313 2.191l.312.933a5.643 5.643 0 0 0 1.812.692c.874.12 6.621.18 6.621.18a5.077 5.077 0 0 0 1.343.391 4.746 4.746 0 0 0 .832-.421l.573-1.173 1-.331a.7.7 0 0 0-.608-.631c-.579-.09-1.422-.626-1.984-.283a5.357 5.357 0 0 1-2.249.584c-.593 0-2.124-1.143-3.966-.812" class="cls-5" transform="translate(12885.209 -16665.76)"/>
            <path id="Path_78" d="M110.335 350.127s-.57-.206-.9-.293-.942.285-.942.285a4.137 4.137 0 0 1-1.709-.307 23.133 23.133 0 0 0-3.133-.482c-.745-.175-3.352-.92-3.352-.92a13.128 13.128 0 0 1 .021 2.386l1.841.2a12.081 12.081 0 0 1 2.695.175c1.424.263 2.563-.087 3.4.219a4.592 4.592 0 0 0 1.709.241 2.046 2.046 0 0 0 .37-1.504z" class="cls-6" transform="translate(12870.138 -16665.221)"/>
            <path id="Line_49" d="M0 0L16.506 0" class="cls-8" transform="translate(12967.077 -16315.059)"/>
            <path id="Path_79" fill="#8d295b" stroke="#011e29" stroke-linecap="round" stroke-linejoin="round" stroke-width="0.5px" d="M137.487 352.446l-4.657-1.465.728 1.465-.728 1.464z" transform="translate(12850.312 -16667.641)"/>
            <g id="Group_54" transform="translate(12973.04 -16328.425)">
                <path id="Path_80" d="M107.282 317.225c0 2.695 1.056 3.961 3.143 6.064 2.687 2.708 5.735 5.262 3.425 7.3" class="cls-10" transform="translate(-107.282 -317.225)"/>
                <path id="Path_81" d="M107.282 366.483c0-2.695 1.056-3.961 3.143-6.064 2.687-2.708 5.735-5.262 3.425-7.3" class="cls-10" transform="translate(-107.282 -339.749)"/>
            </g>
            <path id="Path_82" d="M97.287 321.168l-6.013 11.9 5.987 11.847" class="cls-10" transform="translate(12875.803 -16648.125)"/>
            <path id="Path_83" d="M90.632 384.87a8.2 8.2 0 0 0-2.125-7.519" class="cls-8" transform="translate(12877.539 -16683.385)"/>
            <path id="Path_84" d="M95.982 359.7c0 1.652.907 3.067 1.039 5.126a7.572 7.572 0 0 1-.263 3.032" class="cls-10" transform="translate(12872.848 -16672.309)"/>
            <path id="Path_11196" d="M12957.693-16324.354s1 2.022.291 2.412" class="cls-11" transform="translate(6.35 2.058)"/>
            <path id="Path_11207" d="M12957.693-16324.354s1 2.022.291 2.412" class="cls-11" transform="translate(8.352 2.058)"/>
        </g>
    </g>
</svg>
