<svg xmlns="http://www.w3.org/2000/svg" width="83" height="83" viewBox="0 0 83 83">
    <defs>
        <filter id="Path_6806" width="83" height="83" x="0" y="0" filterUnits="userSpaceOnUse">
            <feOffset dy="3"/>
            <feGaussianBlur result="blur" stdDeviation="3"/>
            <feFlood flood-opacity=".078"/>
            <feComposite in2="blur" operator="in"/>
            <feComposite in="SourceGraphic"/>
        </filter>
        <style>
            .cls-2{fill:#2a222f;stroke:#fff;stroke-linecap:square;stroke-linejoin:bevel}.cls-5{fill:#288c04;stroke:#011e29;stroke-linecap:round;stroke-linejoin:round;stroke-width:.5px}.cls-6{fill:#011e29}
        </style>
    </defs>
    <g id="Group_7525" transform="translate(-452 -703.254)">
        <g filter="url(#Path_6806)" transform="matrix(1, 0, 0, 1, 452, 703.25)">
            <g id="Path_6806-2" fill="#a6cc41" stroke="none">
                <path d="M32.5 64.5c-4.32 0-8.51-.846-12.456-2.515-3.81-1.611-7.232-3.919-10.171-6.858-2.94-2.939-5.247-6.36-6.858-10.171C1.346 41.01.5 36.82.5 32.5s.846-8.51 2.515-12.456c1.611-3.81 3.919-7.232 6.858-10.171 2.939-2.94 6.36-5.247 10.171-6.858C23.99 1.346 28.18.5 32.5.5s8.51.846 12.456 2.515c3.81 1.611 7.232 3.919 10.171 6.858 2.94 2.939 5.247 6.36 6.858 10.171C63.654 23.99 64.5 28.18 64.5 32.5s-.846 8.51-2.515 12.456c-1.611 3.81-3.919 7.232-6.858 10.171-2.939 2.94-6.36 5.247-10.171 6.858C41.01 63.654 36.82 64.5 32.5 64.5z" transform="translate(9 6)"/>
                <path fill="#fff" d="M32.5 1c-4.253 0-8.378.833-12.26 2.475-3.752 1.587-7.12 3.858-10.014 6.751-2.893 2.893-5.164 6.262-6.751 10.013C1.833 24.122 1 28.247 1 32.5s.833 8.378 2.475 12.26c1.587 3.752 3.858 7.12 6.751 10.014 2.893 2.893 6.262 5.164 10.013 6.751C24.122 63.167 28.247 64 32.5 64s8.378-.833 12.26-2.475c3.752-1.587 7.12-3.858 10.014-6.751 2.893-2.893 5.164-6.262 6.751-10.013C63.167 40.878 64 36.753 64 32.5s-.833-8.378-2.475-12.26c-1.587-3.752-3.858-7.12-6.751-10.014-2.893-2.893-6.262-5.164-10.013-6.751C40.878 1.833 36.753 1 32.5 1m0-1C50.45 0 65 14.55 65 32.5S50.45 65 32.5 65 0 50.45 0 32.5 14.55 0 32.5 0z" transform="translate(9 6)"/>
            </g>
        </g>
        <g id="Group_6909" transform="translate(475.961 725.809)">
            <path id="Line_1" d="M0 0L0 3.513" class="cls-2" transform="translate(1.756)"/>
            <path id="Line_2" d="M3.513 0L0 0" class="cls-2" transform="translate(0 1.756)"/>
        </g>
        <path id="Path_6807" fill="none" stroke="#fff" stroke-linecap="square" stroke-linejoin="bevel" d="M68.607 49.021s2.572.156 2.572 3.585h.086c0-3.429 2.572-3.585 2.572-3.585v-.088s-2.572-.156-2.572-3.585h-.086c0 3.429-2.572 3.585-2.572 3.585z" transform="translate(416.381 672.566)"/>
        <g id="Group_6910" transform="translate(514.303 750.455)">
            <path id="Line_35" d="M0 0L0 3.513" class="cls-2" transform="translate(1.756)"/>
            <path id="Line_36" d="M3.513 0L0 0" class="cls-2" transform="translate(0 1.756)"/>
        </g>
        <path id="Path_11201" fill="#288c04" d="M166.164 122.309c-.1-.067-2.13-1.126-2.13-1.126l1.467-.967 10.535-1 8.969-.009h1.756s.883 1.12.783 1.037a17.452 17.452 0 0 0-2.267.95l3.133-.1s1.233 1.966 1.266 2.066a2.429 2.429 0 0 1 0 .5H157.8l.937-1.3h2.83z" transform="translate(321.669 633.604)"/>
        <g id="Group_7525-2" transform="translate(469.204 727.566)">
            <path id="Path_253" d="M236.233 86.96a9.439 9.439 0 0 1 3.146.493c1.3.531 3.016 4.058 5.514 2.579a3.544 3.544 0 0 1-4.671.569c-2.595-1.782-4.508-1.1-4.508-1.1" class="cls-5" transform="translate(-195.696 -74.03)"/>
            <path id="Path_254" d="M190.527 110.564a9.284 9.284 0 0 1-.422.834l-.259 3.261a3.31 3.31 0 0 0 2.984 0l-.779-2.73a10.749 10.749 0 0 1 .442-1.537c-.243.033-.491.064-.747.089-.424.041-.83.068-1.219.083z" class="cls-5" transform="translate(-167.342 -88.515)"/>
            <path id="Path_255" d="M226 92.044c-1.012 1.365-2.6 1.669-4.736 2.5s-2.854 4.626-2.854 4.626l.779 2.73a3.311 3.311 0 0 1-2.984 0l.259-3.261a7.1 7.1 0 0 0 .779-6.067 10.272 10.272 0 0 0 1.751-1.9" class="cls-5" transform="translate(-183.633 -76.329)"/>
            <path id="Path_256" d="M10.354 0a44.118 44.118 0 0 1-5.931 1.632A4.534 4.534 0 0 0 1.435 3.95 12.431 12.431 0 0 0 .006 7.232c-.174 1.416 3.709-2.123 4.228-1.163l.6-.4s-.246-1.065-2.971.4l.549-1.035a4.587 4.587 0 0 1 2.965-2.393 31.743 31.743 0 0 1 3.753-.667C11.638 1.721 10.354 0 10.354 0z" class="cls-6" transform="translate(2.087 6.929) rotate(16)"/>
            <path id="Path_257" d="M145.95 93.8a1.2 1.2 0 0 0-.437 1.509 3.487 3.487 0 0 1 .048 2.407.883.883 0 0 0 .61-.828v-.034c.086-.756.141.38.141.38a2.3 2.3 0 0 0 .261-1.771 2.943 2.943 0 0 0-.623-1.663z" class="cls-6" transform="translate(-141.049 -80.561)"/>
            <path id="Path_258" fill="#2a222f" stroke="#00b1cd" stroke-linecap="square" stroke-linejoin="bevel" stroke-width="0.5px" d="M165.762 74.661a17.8 17.8 0 0 1-2.407.4c-6.9.673-9.1-2.351-9.1-2.351-1.012 1.365-3.139 1.668-5.28 2.5s-2.854 4.627-2.854 4.627l.779 2.73a3.312 3.312 0 0 1-2.984 0l.26-3.261a7.1 7.1 0 0 0 .779-6.067 10.265 10.265 0 0 0 1.751-1.9c1.038-1.365.649-4.854 2.854-7.684s6.422-2.706 6.422-2.706c3.6-1.365 7.291-4.331 9.667-6.486a5.267 5.267 0 0 1 6.2-.656c3.381 1.973 8.3 5.49 10.945 10.421 0 0-1.034 4-1.352 4.837 0 0-2.235 2.161-2.527 3.412a2.891 2.891 0 0 1-2.822-.607 2.851 2.851 0 0 1 .194-1.782 6.922 6.922 0 0 1-.454-3.147l-.908 2.351.13 3.109a9.348 9.348 0 0 0-4.216 1.858 2.389 2.389 0 0 1-2.11-.259l-.534-.125a15.209 15.209 0 0 1-1.906.653z" transform="translate(-138.951 -53.097)"/>
            <path id="Path_259" fill="#fff" stroke="#011e29" stroke-linecap="square" stroke-linejoin="bevel" d="M165.762 74.661a17.8 17.8 0 0 1-2.407.4c-6.9.673-9.1-2.351-9.1-2.351-1.012 1.365-3.139 1.668-5.28 2.5s-2.854 4.627-2.854 4.627l.779 2.73a3.312 3.312 0 0 1-2.984 0l.26-3.261a7.1 7.1 0 0 0 .779-6.067 10.265 10.265 0 0 0 1.751-1.9c1.038-1.365.649-4.854 2.854-7.684s6.422-2.706 6.422-2.706c3.6-1.365 7.291-4.331 9.667-6.486a5.267 5.267 0 0 1 6.2-.656c3.381 1.973 8.3 5.49 10.945 10.421 0 0-1.034 4-1.352 4.837 0 0-2.235 2.161-2.527 3.412a2.891 2.891 0 0 1-2.822-.607 2.851 2.851 0 0 1 .194-1.782 6.922 6.922 0 0 1-.454-3.147l-.908 2.351.13 3.109a9.348 9.348 0 0 0-4.216 1.858 2.389 2.389 0 0 1-2.11-.259l-.534-.125a15.209 15.209 0 0 1-1.906.653z" transform="translate(-138.951 -53.097)"/>
            <path id="Path_260" d="M228.039 83.214a12.568 12.568 0 0 0-1.636 1.093 14.93 14.93 0 0 0-.668 4.808l1.356-1.654a23.071 23.071 0 0 1 .948-4.247z" class="cls-6" transform="translate(-189.633 -73.521)"/>
            <path id="Path_261" d="M241.27 81.922a9.446 9.446 0 0 1 3.146.493c1.3.531 3.016 4.058 5.514 2.578a3.544 3.544 0 0 1-4.671.569c-2.595-1.782-4.508-1.1-4.508-1.1" class="cls-6" transform="translate(-198.81 -70.915)"/>
            <path id="Path_262" d="M237.821 90.334A6.122 6.122 0 0 1 238.873 92s1.98-1.066-1.052-1.666z" class="cls-6" transform="translate(-198.009 -76.689)"/>
            <path id="Path_263" fill="#2a222f" stroke="#011e29" stroke-linecap="square" stroke-linejoin="bevel" d="M219.737 87.039l-.09-2.757s-3.447-4.146-3.447-5.8" transform="translate(-183.633 -68.79)"/>
            <path id="Path_264" d="M173.466 91.755A8.223 8.223 0 0 1 171 96.609a5.219 5.219 0 0 0 1.074.682c2.217-3.216 1.392-5.536 1.392-5.536z" class="cls-6" transform="translate(-156.547 -76.994)"/>
            <path id="Path_265" fill="#011e29" stroke="#011e29" stroke-linecap="square" stroke-linejoin="bevel" stroke-width="0.5px" d="M203.7 87.672l2.908-1.353 1.536.493c-1.944-2.174-8.444-2.983-8.444-2.983-.99-3.352-.07-4.989.361-5.345-.46.325-2.322 1.929-.8 5.816a26.694 26.694 0 0 1 6.532 1.647l-2 1.017a2.907 2.907 0 0 0-2.763-.3l-1.247 3.694c.211-.043.421-.086.623-.132l1.135-3.006a2.486 2.486 0 0 1 2.159.452z" transform="translate(-174.264 -68.79)"/>
        </g>
    </g>
</svg>
