<svg xmlns="http://www.w3.org/2000/svg" width="83" height="83" viewBox="0 0 83 83">
    <defs>
        <filter id="Path_6806" width="83" height="83" x="0" y="0" filterUnits="userSpaceOnUse">
            <feOffset dy="3"/>
            <feGaussianBlur result="blur" stdDeviation="3"/>
            <feFlood flood-opacity=".078"/>
            <feComposite in2="blur" operator="in"/>
            <feComposite in="SourceGraphic"/>
        </filter>
        <style>
            .cls-2{fill:#2a222f;stroke:#fff;stroke-linecap:square;stroke-linejoin:bevel}.cls-4{fill:#fff;stroke:#011e29;stroke-linecap:round;stroke-linejoin:round}.cls-5{fill:#976902}
        </style>
    </defs>
    <g id="Group_7557" transform="translate(-345 -827.5)">
        <g filter="url(#Path_6806)" transform="matrix(1, 0, 0, 1, 345, 827.5)">
            <g id="Path_6806-2" fill="#da9b0d" stroke="none">
                <path d="M32.5 64.5c-4.32 0-8.51-.846-12.456-2.515-3.81-1.611-7.232-3.919-10.171-6.858-2.94-2.939-5.247-6.36-6.858-10.171C1.346 41.01.5 36.82.5 32.5s.846-8.51 2.515-12.456c1.611-3.81 3.919-7.232 6.858-10.171 2.939-2.94 6.36-5.247 10.171-6.858C23.99 1.346 28.18.5 32.5.5s8.51.846 12.456 2.515c3.81 1.611 7.232 3.919 10.171 6.858 2.94 2.939 5.247 6.36 6.858 10.171C63.654 23.99 64.5 28.18 64.5 32.5s-.846 8.51-2.515 12.456c-1.611 3.81-3.919 7.232-6.858 10.171-2.939 2.94-6.36 5.247-10.171 6.858C41.01 63.654 36.82 64.5 32.5 64.5z" transform="translate(9 6)"/>
                <path fill="#fff" d="M32.5 1c-4.253 0-8.378.833-12.26 2.475-3.752 1.587-7.12 3.858-10.014 6.751-2.893 2.893-5.164 6.262-6.751 10.013C1.833 24.122 1 28.247 1 32.5s.833 8.378 2.475 12.26c1.587 3.752 3.858 7.12 6.751 10.014 2.893 2.893 6.262 5.164 10.013 6.751C24.122 63.167 28.247 64 32.5 64s8.378-.833 12.26-2.475c3.752-1.587 7.12-3.858 10.014-6.751 2.893-2.893 5.164-6.262 6.751-10.013C63.167 40.878 64 36.753 64 32.5s-.833-8.378-2.475-12.26c-1.587-3.752-3.858-7.12-6.751-10.014-2.893-2.893-6.262-5.164-10.013-6.751C40.878 1.833 36.753 1 32.5 1m0-1C50.45 0 65 14.55 65 32.5S50.45 65 32.5 65 0 50.45 0 32.5 14.55 0 32.5 0z" transform="translate(9 6)"/>
            </g>
        </g>
        <g id="Group_6909" transform="translate(361.961 872.42)">
            <path id="Line_1" d="M0 0L0 3.513" class="cls-2" transform="translate(1.756)"/>
            <path id="Line_2" d="M3.513 0L0 0" class="cls-2" transform="translate(0 1.756)"/>
        </g>
        <path id="Path_6807" fill="none" stroke="#fff" stroke-linecap="square" stroke-linejoin="bevel" d="M68.607 49.021s2.572.156 2.572 3.585h.086c0-3.429 2.572-3.585 2.572-3.585v-.088s-2.572-.156-2.572-3.585h-.086c0 3.429-2.572 3.585-2.572 3.585z" transform="translate(327.277 798.956)"/>
        <g id="Group_6910" transform="translate(393.303 887.701)">
            <path id="Line_35" d="M0 0L0 3.513" class="cls-2" transform="translate(1.756)"/>
            <path id="Line_36" d="M3.513 0L0 0" class="cls-2" transform="translate(0 1.756)"/>
        </g>
        <g id="Group_7561" transform="translate(-12306.52 17171.582)">
            <path id="Path_341" d="M452.073 65.9a5.7 5.7 0 0 0 1.745 4.653c.5.45 1.44 1.1 1.906 1.59a3.56 3.56 0 0 1 .976 1.942 2.606 2.606 0 0 1-.586 2.06 1.723 1.723 0 0 0 1.495.682 1.156 1.156 0 0 1-.053 1.415.883.883 0 0 0 1.178.353l-.144.62a.423.423 0 0 0-.016.165c.027.161.226.233.388.208s.307-.113.467-.142c.456-.086.862.307 1.084.714a3.775 3.775 0 0 0 .716 1.179 1.6 1.6 0 0 0 1.906-.059 4.443 4.443 0 0 0 1.228-1.623 3.359 3.359 0 0 0 .552-1.976c3.567 4.948-.888 11.163-1.192 11.61l12.633-3.2a31.006 31.006 0 0 0-2.647-21.491 23.221 23.221 0 0 0-3.73-5.225 12.467 12.467 0 0 0-13.429-1.355c-2.772 1.653-4.282 3.934-4.477 7.88z" class="cls-4" transform="translate(12223.265 -16376.34)"/>
            <path id="Path_342" d="M484.32 71.924c-2.219 2.719-4.887 5.144-8.373 5.542a11.763 11.763 0 0 1-4.362-.249 12.489 12.489 0 0 1-7.195-5.987 36.8 36.8 0 0 1-3.461-8.891 14.181 14.181 0 0 1-9.493 4.756 9.876 9.876 0 0 1-.61-11.186 13.951 13.951 0 0 1 5.769-4.737 15.552 15.552 0 0 1 5.659-1.671c4.658-.334 9.193 2.347 11.929 6.131 1.216 1.681 2.127 3.562 3.255 5.3a11.387 11.387 0 0 0 4.408 4.283 5.538 5.538 0 0 0 5.868-.465c-.836 2.368-1.808 5.232-3.394 7.174z" class="cls-4" transform="translate(12224.476 -16373.124)"/>
            <path id="Path_343" d="M473.564 82.119a7.04 7.04 0 0 0 1.7-3.89 2.712 2.712 0 0 0-.13-1.338 1.238 1.238 0 0 0-1.016-.792 1.541 1.541 0 0 0-1.14.586 3.823 3.823 0 0 0-.99 2.187 11.065 11.065 0 0 1 1.576 3.247z" class="cls-5" transform="translate(12214.294 -16385.111)"/>
            <path id="Path_344" fill="#011e29" d="M465.391 83.468c-.155.583-.524.545-1.06.823s-1.248.8-1.626.328a1.4 1.4 0 0 0 1.174.971 1.634 1.634 0 0 0 1.364-.745 1.96 1.96 0 0 0 .228-1.559c.019.154.029.074-.08.182z" transform="translate(12218.475 -16388.348)"/>
            <path id="Path_345" d="M492.882 70.087a6.908 6.908 0 0 1-9.044.289 11.046 11.046 0 0 1-3-5.32 37.868 37.868 0 0 0-1.9-5.881 7.055 7.055 0 0 0-4.455-4 4.867 4.867 0 0 1 4.917.466 17.437 17.437 0 0 1 3.958 4.061l3.995 5.111a13.423 13.423 0 0 0 2.981 3.07 4.535 4.535 0 0 0 4.082.648 12.914 12.914 0 0 1-1.534 1.556z" class="cls-5" transform="translate(12213.571 -16373.646)"/>
            <path id="Path_346" fill="#fff" d="M453.475 70.171a13.264 13.264 0 0 1-.743-9.821 9.633 9.633 0 0 0-.3 9.978c.448.172.614.062 1.043-.157z" opacity="0.45" transform="translate(12223.661 -16378.021)"/>
            <path id="Path_348" d="M481.64 78.868c-2.666-.966-4.361-3.646-5.167-6.365s-.921-5.594-1.552-8.361-1.921-5.579-4.354-7.042a7.559 7.559 0 0 1 5.269 3.644 17.215 17.215 0 0 1 2.243 6.36 25.355 25.355 0 0 0 1.532 6.248 9.917 9.917 0 0 0 7.544 5.538c-2.022.253-3.602.672-5.515-.022z" class="cls-5" transform="translate(12214.935 -16376.56)"/>
        </g>
    </g>
</svg>
